<svg width="24" height="24" viewBox="0 0 24 24" fill="none" xmlns="http://www.w3.org/2000/svg">
<path d="M18.61 6.67995C18.2 6.67995 17.86 6.33995 17.86 5.92995V4.41995C17.86 3.81995 17.37 3.31995 16.76 3.31995H3.82999C3.22999 3.31995 2.72999 3.80995 2.72999 4.41995V5.92995C2.72999 6.33995 2.38999 6.67995 1.97999 6.67995C1.56999 6.67995 1.23999 6.33995 1.23999 5.92995V4.41995C1.23999 2.98995 2.40999 1.81995 3.83999 1.81995H16.76C18.19 1.81995 19.36 2.97995 19.36 4.41995V5.92995C19.36 6.33995 19.02 6.67995 18.61 6.67995Z" fill="#292D32"/>
<path d="M10.3 18.8499C9.88999 18.8499 9.54999 18.5099 9.54999 18.0999V3.31995C9.54999 2.90995 9.88999 2.56995 10.3 2.56995C10.71 2.56995 11.05 2.90995 11.05 3.31995V18.0999C11.05 18.5199 10.71 18.8499 10.3 18.8499Z" fill="#292D32"/>
<path d="M12.48 18.85H6.89999C6.48999 18.85 6.14999 18.51 6.14999 18.1C6.14999 17.69 6.48999 17.35 6.89999 17.35H12.48C12.89 17.35 13.23 17.69 13.23 18.1C13.23 18.51 12.89 18.85 12.48 18.85Z" fill="#292D32"/>
<path d="M22.01 13.2C21.6 13.2 21.26 12.86 21.26 12.45V11.65C21.26 11.34 21 11.08 20.69 11.08H13.68C13.27 11.08 12.93 10.74 12.93 10.33C12.93 9.91996 13.27 9.57996 13.68 9.57996H20.69C21.83 9.57996 22.76 10.51 22.76 11.65V12.45C22.76 12.87 22.43 13.2 22.01 13.2Z" fill="#292D32"/>
<path d="M16.08 22.18C15.67 22.18 15.33 21.84 15.33 21.43V10.87C15.33 10.46 15.67 10.12 16.08 10.12C16.49 10.12 16.83 10.46 16.83 10.87V21.43C16.83 21.84 16.49 22.18 16.08 22.18Z" fill="#292D32"/>
<path d="M18.22 22.1801H13.94C13.53 22.1801 13.19 21.8401 13.19 21.4301C13.19 21.0201 13.53 20.6801 13.94 20.6801H18.22C18.63 20.6801 18.97 21.0201 18.97 21.4301C18.97 21.8401 18.63 22.1801 18.22 22.1801Z" fill="#292D32"/>
</svg>
