<svg viewBox="0 0 165 50" fill="none" xmlns="http://www.w3.org/2000/svg" class="inline w-[106px]"><path d="M19.892 23.713c-.247.28-.472.635-.666 1.011-.396.774-.686 1.646-.88 2.538a13.636 13.636 0 0 0-.085 5.475c.107.56.247 1.097.429 1.635.343-.592.644-1.215.912-1.85a19.67 19.67 0 0 0 .912-2.678c.236-.914.408-1.84.494-2.764.042-.463.064-.925.053-1.366a7.014 7.014 0 0 0-.129-1.291 5.97 5.97 0 0 0-.15-.56 1.91 1.91 0 0 0-.204-.419c-.021-.021-.032-.054-.053-.064-.011-.011-.011-.022-.022-.033l-.021-.021c-.011-.022-.032-.022-.043-.032 0 0-.01 0-.01-.011-.022.01-.108.043-.194.107a1.554 1.554 0 0 0-.343.323Z" fill="#8B0ABE"></path><path d="M33.69 17.937a78.766 78.766 0 0 1-.097 2.27 49.233 49.233 0 0 1-.3 3.087 42.342 42.342 0 0 1-1.235 6.098c-.29 1-.611 1.99-.997 2.969-.194.484-.397.968-.612 1.452-.225.473-.45.957-.708 1.42a17.971 17.971 0 0 1-1.77 2.7c-.344.43-.72.838-1.127 1.236a8.107 8.107 0 0 1-1.373 1.076 6.603 6.603 0 0 1-1.695.774 4.995 4.995 0 0 1-2.007.14l-.257-.043c-.086-.022-.172-.043-.247-.065-.172-.043-.322-.107-.483-.161a5.383 5.383 0 0 1-.89-.462c-.548-.355-.998-.796-1.384-1.248-.097-.118-.183-.237-.269-.344l-.14-.205-.02.022a11.042 11.042 0 0 1-2.64 1.947c-.118.064-.247.129-.376.182-.128.054-.257.119-.386.173a9.706 9.706 0 0 1-.783.29 6.487 6.487 0 0 1-.848.215 5.22 5.22 0 0 1-.944.086c-.332 0-.686-.054-1.04-.172a2.907 2.907 0 0 1-1.652-1.42 4.744 4.744 0 0 1-.365-.892c-.172-.581-.236-1.151-.28-1.69a16.01 16.01 0 0 1-.01-1.602c.043-1.043.16-2.054.29-3.054.128-1 .278-1.99.386-2.958l.043-.366c.01-.129.021-.226.032-.344l.01-.172v-.161c0-.108.011-.226 0-.334 0-.43-.064-.85-.182-1.162-.064-.14-.128-.258-.193-.311-.064-.054-.096-.076-.182-.086-.086-.011-.215.01-.376.053-.075.033-.16.054-.247.108l-.128.064-.13.076a5.105 5.105 0 0 0-.997.839c-.322.322-.633.688-.923 1.054-.59.753-1.126 1.57-1.663 2.409a.344.344 0 0 1-.472.107.348.348 0 0 1-.14-.387c.151-.484.323-.968.527-1.44.193-.474.429-.937.686-1.4.258-.45.558-.892.89-1.322.344-.42.72-.828 1.202-1.172l.183-.13c.064-.043.129-.075.204-.118.128-.086.279-.15.429-.215a2.492 2.492 0 0 1 1.094-.183c.107.01.204.022.311.043.108.033.204.065.311.097.097.043.194.097.29.15.086.054.172.13.258.194.31.28.504.602.643.914.258.624.322 1.205.354 1.775.011.14.011.28.011.42v.204l-.01.204c-.011.13-.011.28-.022.398l-.032.377c-.097 1.01-.225 2-.322 2.99a33.99 33.99 0 0 0-.215 2.904c-.01.473-.01.946.032 1.398.033.452.108.882.226 1.259.053.182.129.354.204.494.075.14.171.237.257.323.086.075.183.129.3.161.119.032.269.054.43.054.676 0 1.588-.344 2.35-.753a9.304 9.304 0 0 0 2.134-1.613c.14-.15.29-.29.419-.452-.064-.14-.129-.29-.193-.43a15.253 15.253 0 0 1-.912-3.12 15.51 15.51 0 0 1-.236-3.226c.032-1.076.16-2.151.408-3.205.246-1.054.59-2.087 1.115-3.087.269-.495.58-.99.998-1.463.215-.236.45-.462.751-.678.3-.204.676-.408 1.159-.483.236-.043.504-.033.751.01.258.054.494.14.708.258l.29.194c.086.065.171.14.236.215l.107.108c.032.043.064.075.097.118.064.075.118.15.171.237.204.311.344.623.451.925.107.3.182.602.236.881.107.581.15 1.14.15 1.69.01.548-.021 1.085-.075 1.623-.107 1.065-.322 2.098-.59 3.12a20.747 20.747 0 0 1-1.051 2.968 18.016 18.016 0 0 1-1.502 2.797c-.108.172-.226.333-.344.505l.097.172.171.269.183.258.193.237c.257.3.547.559.837.742.14.097.29.161.44.215.075.022.15.054.225.065.043.01.075.021.107.021l.118.022c.15.021.3.021.462.01.16-.01.322-.053.482-.096.333-.097.666-.27.998-.485.665-.44 1.288-1.075 1.824-1.774.268-.355.526-.732.773-1.119.246-.387.461-.796.676-1.215.847-1.657 1.47-3.474 1.92-5.324.912-3.71 1.148-7.605.901-11.444v-.065a23.88 23.88 0 0 0-.31-2.549 19.148 19.148 0 0 0-10.601-3.194C8.615 11.409 0 20.045 0 30.704 0 41.364 8.615 50 19.248 50c10.632 0 19.248-8.637 19.248-19.296a19.182 19.182 0 0 0-4.807-12.767ZM37.037 3.858l-4.099.28-1.33-4.012c-.065-.183-.333-.162-.354.032l-.633 4.83L27.22 7.45c-.14.097-.075.323.096.334l3.52.28 1.458 3.57c.065.172.312.14.355-.032l.836-4.27 3.702-3.14c.118-.119.032-.345-.15-.334ZM64.25 25.42h3.897l-4.525 12.84h-3.074l-2.627-8.328-2.548 8.328h-3.074l-4.662-12.84h3.896l2.411 7.834 2.445-7.835h3.017l2.445 7.835 2.4-7.835ZM68.57 31.845c0-4.066 3.233-6.758 6.878-6.758s6.878 2.692 6.878 6.758c0 4.043-3.233 6.735-6.878 6.735s-6.879-2.692-6.879-6.735Zm10.123 0c0-2.005-1.451-3.413-3.234-3.413-1.782 0-3.233 1.397-3.233 3.413 0 1.982 1.45 3.379 3.233 3.379 1.783.012 3.234-1.397 3.234-3.379ZM94.13 25.5l-.823 3.436a3.715 3.715 0 0 0-1.84-.47c-1.84 0-3.096 1.73-3.096 5.383v4.399h-3.588V25.419h3.565v2.75c.708-2.143 2.17-3.082 3.759-3.082.686 0 1.451.103 2.022.412ZM105.132 18.432h3.588V38.26h-3.588v-1.593c-.902 1.318-2.685 1.925-4.113 1.925-3.29 0-6.284-2.635-6.284-6.758 0-4.124 2.993-6.735 6.284-6.735 1.486 0 3.211.572 4.113 1.901v-8.568Zm-.114 13.39c0-1.981-1.645-3.379-3.313-3.379-1.806 0-3.314 1.49-3.314 3.38 0 1.866 1.508 3.413 3.314 3.413 1.748 0 3.313-1.466 3.313-3.414ZM119.324 25.42v2.806h-2.72V38.26h-3.588V28.226h-2.33v-2.807h2.33v-4.673h3.588v4.673h2.72ZM129.961 25.42h3.588v12.84h-3.588v-2.085c-.548 1.672-2.582 2.417-3.839 2.417-3.348 0-5.096-2.257-5.073-6.105v-7.068h3.588v6.873c0 2.004 1.211 2.944 2.445 2.944 1.291 0 2.879-.71 2.879-3.024v-6.793ZM149.248 31.215v7.033h-3.587v-6.85c0-2.004-1.212-2.909-2.446-2.909-1.291 0-2.879.687-2.879 3.024v6.735h-3.588V25.42h3.588v2.177c.548-1.73 2.582-2.497 3.839-2.497 3.348-.012 5.108 2.267 5.073 6.116ZM164.924 33.002h-9.62c.388 1.512 1.588 2.394 3.29 2.394 1.314 0 2.583-.607 3.371-1.512l2.08 2.119c-1.212 1.627-3.428 2.589-5.679 2.589-3.953 0-6.833-2.772-6.833-6.735 0-4.147 3.154-6.758 6.799-6.758 3.679 0 6.661 2.611 6.661 6.54.023.344-.011.79-.069 1.363Zm-3.53-2.337c-.114-1.512-1.348-2.474-2.96-2.474-1.485 0-2.742.745-3.13 2.474h6.09Z" fill="#8B0ABE"></path></svg>