<svg xmlns="http://www.w3.org/2000/svg" xmlns:xlink="http://www.w3.org/1999/xlink" width="512" zoomAndPan="magnify" viewBox="0 0 384 131.249995" height="175" preserveAspectRatio="xMidYMid meet" version="1.0"><defs><g/></defs><g fill="#5e17eb" fill-opacity="1"><g transform="translate(7.615738, 117.819197)"><g><path d="M 84.828125 -49.046875 L 84.828125 -111.578125 L 89.671875 -111.578125 L 89.671875 -49.046875 C 89.671875 -42.222656 86.972656 -36.382812 81.578125 -31.53125 C 76.191406 -26.675781 69.726562 -24.25 62.1875 -24.25 C 54.644531 -24.25 48.175781 -26.675781 42.78125 -31.53125 C 37.394531 -36.382812 34.703125 -42.222656 34.703125 -49.046875 L 34.703125 -111.578125 L 39.546875 -111.578125 L 39.546875 -49.046875 C 39.546875 -43.566406 41.757812 -38.875 46.1875 -34.96875 C 50.613281 -31.0625 55.945312 -29.109375 62.1875 -29.109375 C 68.425781 -29.109375 73.757812 -31.0625 78.1875 -34.96875 C 82.613281 -38.875 84.828125 -43.566406 84.828125 -49.046875 Z M 94.53125 -49.046875 L 94.53125 -111.578125 L 99.375 -111.578125 L 99.375 -49.046875 C 99.375 -44.378906 98.382812 -39.921875 96.40625 -35.671875 C 94.4375 -31.429688 91.789062 -27.757812 88.46875 -24.65625 C 85.144531 -21.5625 81.191406 -19.101562 76.609375 -17.28125 C 72.023438 -15.457031 67.21875 -14.546875 62.1875 -14.546875 C 57.15625 -14.546875 52.347656 -15.457031 47.765625 -17.28125 C 43.179688 -19.101562 39.226562 -21.5625 35.90625 -24.65625 C 32.582031 -27.757812 29.929688 -31.429688 27.953125 -35.671875 C 25.984375 -39.921875 25 -44.378906 25 -49.046875 L 25 -111.578125 L 29.84375 -111.578125 L 29.84375 -49.046875 C 29.84375 -43.703125 31.289062 -38.75 34.1875 -34.1875 C 37.082031 -29.632812 41.007812 -26.03125 45.96875 -23.375 C 50.9375 -20.726562 56.34375 -19.40625 62.1875 -19.40625 C 68.03125 -19.40625 73.429688 -20.726562 78.390625 -23.375 C 83.359375 -26.03125 87.289062 -29.632812 90.1875 -34.1875 C 93.082031 -38.75 94.53125 -43.703125 94.53125 -49.046875 Z M 104.234375 -49.046875 L 104.234375 -111.578125 L 109.078125 -111.578125 L 109.078125 -49.046875 C 109.078125 -43.078125 107.832031 -37.363281 105.34375 -31.90625 C 102.851562 -26.445312 99.515625 -21.738281 95.328125 -17.78125 C 91.148438 -13.832031 86.164062 -10.6875 80.375 -8.34375 C 74.582031 -6.007812 68.519531 -4.84375 62.1875 -4.84375 C 55.851562 -4.84375 49.785156 -6.007812 43.984375 -8.34375 C 38.191406 -10.6875 33.207031 -13.832031 29.03125 -17.78125 C 24.851562 -21.738281 21.519531 -26.445312 19.03125 -31.90625 C 16.539062 -37.363281 15.296875 -43.078125 15.296875 -49.046875 L 15.296875 -111.578125 L 20.140625 -111.578125 L 20.140625 -49.046875 C 20.140625 -41.953125 22.023438 -35.382812 25.796875 -29.34375 C 29.578125 -23.300781 34.6875 -18.515625 41.125 -14.984375 C 47.570312 -11.460938 54.59375 -9.703125 62.1875 -9.703125 C 69.78125 -9.703125 76.796875 -11.460938 83.234375 -14.984375 C 89.679688 -18.515625 94.789062 -23.300781 98.5625 -29.34375 C 102.34375 -35.382812 104.234375 -41.953125 104.234375 -49.046875 Z M 113.9375 -49.046875 L 113.9375 -111.578125 L 118.78125 -111.578125 L 118.78125 -49.046875 C 118.78125 -39.347656 116.242188 -30.351562 111.171875 -22.0625 C 106.097656 -13.78125 99.210938 -7.222656 90.515625 -2.390625 C 81.828125 2.429688 72.382812 4.84375 62.1875 4.84375 C 51.988281 4.84375 42.539062 2.429688 33.84375 -2.390625 C 25.15625 -7.222656 18.273438 -13.78125 13.203125 -22.0625 C 8.128906 -30.351562 5.59375 -39.347656 5.59375 -49.046875 L 5.59375 -111.578125 L 10.4375 -111.578125 L 10.4375 -49.046875 C 10.4375 -42.441406 11.804688 -36.109375 14.546875 -30.046875 C 17.285156 -23.984375 20.96875 -18.757812 25.59375 -14.375 C 30.226562 -10 35.742188 -6.507812 42.140625 -3.90625 C 48.546875 -1.300781 55.226562 0 62.1875 0 C 69.144531 0 75.820312 -1.300781 82.21875 -3.90625 C 88.625 -6.507812 94.140625 -10 98.765625 -14.375 C 103.398438 -18.757812 107.085938 -23.984375 109.828125 -30.046875 C 112.566406 -36.109375 113.9375 -42.441406 113.9375 -49.046875 Z M 113.9375 -49.046875 "/></g></g></g></svg>