<svg width="28" height="28" viewBox="0 0 28 28" fill="none" xmlns="http://www.w3.org/2000/svg">
<path d="M24.5 6.125H3.5C3.02167 6.125 2.625 5.72833 2.625 5.25C2.625 4.77167 3.02167 4.375 3.5 4.375H24.5C24.9783 4.375 25.375 4.77167 25.375 5.25C25.375 5.72833 24.9783 6.125 24.5 6.125Z" fill="#292D32"/>
<path d="M24.5 11.9583H3.5C3.02167 11.9583 2.625 11.5617 2.625 11.0833C2.625 10.605 3.02167 10.2083 3.5 10.2083H24.5C24.9783 10.2083 25.375 10.605 25.375 11.0833C25.375 11.5617 24.9783 11.9583 24.5 11.9583Z" fill="#292D32"/>
<path d="M24.5 17.7917H3.5C3.02167 17.7917 2.625 17.395 2.625 16.9167C2.625 16.4383 3.02167 16.0417 3.5 16.0417H24.5C24.9783 16.0417 25.375 16.4383 25.375 16.9167C25.375 17.395 24.9783 17.7917 24.5 17.7917Z" fill="#292D32"/>
<path d="M24.5 23.625H3.5C3.02167 23.625 2.625 23.2283 2.625 22.75C2.625 22.2717 3.02167 21.875 3.5 21.875H24.5C24.9783 21.875 25.375 22.2717 25.375 22.75C25.375 23.2283 24.9783 23.625 24.5 23.625Z" fill="#292D32"/>
</svg>
