<svg width="24" height="24" viewBox="0 0 24 24" fill="none" xmlns="http://www.w3.org/2000/svg">
<path d="M15.84 22.75H8.15999C5.47999 22.75 4.25999 21.75 3.71999 20.92C2.92999 19.7 2.95999 18.03 3.80999 16.09L7.63999 7.39C7.10999 7.25 6.61999 6.97 6.22999 6.58C5.65999 6 5.31999 5.2 5.31999 4.37C5.31999 2.65 6.71999 1.25 8.43999 1.25H15.55C16.38 1.25 17.17 1.58 17.76 2.17C18.54 2.95 18.85 4.06 18.59 5.13C18.33 6.2 17.45 7.05 16.37 7.36L20.19 16.1C21.03 18.03 21.06 19.7 20.26 20.92C19.72 21.75 18.5 22.75 15.84 22.75ZM8.43999 2.75C7.54999 2.75 6.81999 3.48 6.81999 4.37C6.81999 4.8 6.99999 5.22 7.28999 5.52C7.58999 5.82 8.00999 5.99 8.43999 5.99H8.73999C8.98999 5.99 9.22999 6.12 9.36999 6.33C9.50999 6.54 9.52999 6.81 9.42999 7.04L5.17999 16.69C4.54999 18.13 4.46999 19.34 4.96999 20.1C5.58999 21.05 7.03999 21.25 8.14999 21.25H15.83C16.93 21.25 18.37 21.05 19 20.1C19.5 19.33 19.43 18.13 18.81 16.7L14.6 7.04C14.5 6.81 14.52 6.54 14.66 6.33C14.8 6.12 15.03 5.99 15.29 5.99H15.45C16.25 5.99 16.97 5.48 17.14 4.77C17.28 4.2 17.12 3.64 16.71 3.23C16.4 2.92 15.99 2.75 15.56 2.75H8.43999Z" fill="#292D32"/>
<path d="M13.84 15.04C13.18 15.04 12.47 14.95 11.76 14.71C8.92 13.76 5.99 13.86 5.96 13.86C5.56 13.92 5.2 13.55 5.18 13.14C5.16 12.73 5.49 12.38 5.9 12.36C6.03 12.35 9.14 12.25 12.23 13.28C14.83 14.15 17.38 12.5 17.41 12.48C17.75 12.25 18.22 12.35 18.45 12.69C18.68 13.03 18.59 13.5 18.24 13.73C18.15 13.8 16.25 15.04 13.84 15.04Z" fill="#292D32"/>
</svg>
