<svg width="140" height="140" fill="none" xmlns="http://www.w3.org/2000/svg" class="inline-block"><rect x="17" y="16" width="108" height="109" rx="54" fill="#fff"></rect><rect x="17" y="16" width="108" height="109" rx="54" fill="#A634EA" fill-opacity="0.2"></rect><rect x="23" y="22" width="96" height="97" rx="48" stroke="#BC63DF" stroke-opacity="0.16" stroke-width="12"></rect><path d="m23.826 32.456-3.645.251-1.191-3.592c-.054-.17-.294-.143-.32.027l-.57 4.317-3.03 2.204c-.125.09-.072.287.08.296l3.138.25 1.297 3.19c.063.152.285.125.312-.028l.746-3.824 3.29-2.804c.133-.099.053-.296-.107-.287ZM107.749 93.992l-5.265.363-1.721-5.189c-.077-.246-.424-.207-.462.039l-.822 6.236-4.379 3.183c-.18.13-.103.414.116.427l4.533.363 1.874 4.606c.09.22.411.181.45-.039l1.078-5.525 4.752-4.05c.192-.142.077-.427-.154-.414Z" fill="#E4C2F9"></path><path d="m110.749 92.992-5.265.363-1.721-5.189c-.077-.246-.424-.207-.462.039l-.822 6.236-4.379 3.183c-.18.13-.103.414.116.427l4.533.363 1.874 4.606c.09.22.411.181.45-.039l1.078-5.525 4.752-4.05c.192-.142.077-.427-.154-.414ZM61.849 88.162l-11.34-11.364a6.562 6.562 0 0 1-1.776-5.99.73.73 0 0 1 1.212-.381l11.301 10.57a5 5 0 0 0 6.851-.02l22.982-21.74a1 1 0 0 1 1.679.595l.03.223a5 5 0 0 1-1.417 4.19L67.512 88.163a4 4 0 0 1-5.663 0Z" fill="#fff"></path><path d="m61.849 88.162-11.34-11.364a6.562 6.562 0 0 1-1.776-5.99.73.73 0 0 1 1.212-.381l11.301 10.57a5 5 0 0 0 6.851-.02l22.982-21.74a1 1 0 0 1 1.679.595l.03.223a5 5 0 0 1-1.417 4.19L67.512 88.163a4 4 0 0 1-5.663 0Z" fill="#A634EA" fill-opacity="0.3"></path><path d="M51 70.737 64.5 84l26-26" stroke="#BC63DF" stroke-width="5" stroke-linecap="round" stroke-linejoin="round"></path></svg>