<svg width="24" height="24" viewBox="0 0 24 24" fill="none" xmlns="http://www.w3.org/2000/svg">
<path d="M4.18012 19.0799C3.99012 19.0799 3.80012 19.0099 3.65012 18.8599C3.36012 18.5699 3.36012 18.0899 3.65012 17.7999L19.5001 1.94992C19.7901 1.65992 20.2701 1.65992 20.5601 1.94992C20.8501 2.23992 20.8501 2.71992 20.5601 3.00992L4.71012 18.8599C4.56012 19.0099 4.37012 19.0799 4.18012 19.0799Z" fill="#292D32"/>
<path d="M5.25007 13.75C4.96007 13.75 4.69007 13.58 4.56007 13.3C4.07007 12.18 3.82007 11.04 3.82007 9.90001C3.82007 7.18001 5.00007 4.67001 7.05007 3.01001C8.97007 1.47001 11.3501 0.910008 13.7501 1.44001C15.3301 1.79001 16.7701 2.62001 17.9001 3.84001C18.1801 4.14001 18.1601 4.62001 17.8601 4.90001C17.5601 5.18001 17.0801 5.16001 16.8001 4.86001C15.8701 3.86001 14.7101 3.18001 13.4301 2.90001C11.4801 2.48001 9.55007 2.93001 8.00007 4.18001C6.30007 5.55001 5.33007 7.63001 5.33007 9.90001C5.33007 10.83 5.54007 11.77 5.94007 12.7C6.11007 13.08 5.93007 13.52 5.55007 13.69C5.45007 13.73 5.35007 13.75 5.25007 13.75Z" fill="#292D32"/>
<path d="M14.6101 19.75H9.4201C9.0301 19.75 8.4801 19.71 8.1101 19.33C7.7501 18.96 7.7601 18.49 7.7701 18.18V17.27C7.3701 16.99 6.9901 16.6699 6.6301 16.3099C6.3401 16.0199 6.3401 15.54 6.6301 15.25C6.9201 14.96 7.4001 14.96 7.6901 15.25C8.0801 15.63 8.4901 15.97 8.9201 16.25C9.1301 16.39 9.2701 16.6299 9.2701 16.8799V18.2199C9.2701 18.2299 9.2701 18.24 9.2701 18.25C9.3101 18.25 9.3601 18.25 9.4301 18.25H14.6201C14.6901 18.25 14.7401 18.25 14.7801 18.24C14.7801 18.2 14.7801 18.1599 14.7801 18.1299V16.87C14.7801 16.61 14.9101 16.38 15.1301 16.24C17.6001 14.66 19.5001 11.16 18.3601 7.52995C18.2401 7.12995 18.4601 6.70995 18.8501 6.58995C19.2401 6.45995 19.6701 6.68995 19.7901 7.07995C21.1001 11.26 19.0601 15.29 16.2801 17.27V18.04C16.2901 18.35 16.3001 18.8799 15.8901 19.2999C15.5801 19.5999 15.1601 19.75 14.6101 19.75Z" fill="#292D32"/>
<path d="M15.5 22.7499C15.43 22.7499 15.36 22.7399 15.29 22.7199C13.13 22.0999 10.86 22.0999 8.70001 22.7199C8.30001 22.8299 7.89001 22.5999 7.77001 22.1999C7.65001 21.7999 7.89001 21.3899 8.29001 21.2699C10.71 20.5799 13.28 20.5799 15.7 21.2699C16.1 21.3799 16.33 21.7999 16.22 22.1999C16.13 22.5399 15.83 22.7499 15.5 22.7499Z" fill="#292D32"/>
</svg>
